<svg width="16" height="16" viewBox="0 0 16 16" fill="none" xmlns="http://www.w3.org/2000/svg">
  <circle cx="8" cy="8.005" r="7.335" fill="#001E2B"/>
  <path d="M8.93 3.86a18.943 18.943 0 0 1-.915-1.184.02.02 0 0 0-.03 0c-.079.112-.466.652-.915 1.184-3.858 4.903.608 8.213.608 8.213l.037.024c.033.511.117 1.246.117 1.246h.332s.084-.73.117-1.246l.037-.029c.005 0 4.47-3.305.612-8.208Zm-.932 8.138s-.2-.17-.254-.258v-.008l.241-5.34c0-.016.025-.016.025 0l.242 5.34v.008c-.054.088-.254.258-.254.258Z" fill="#00ED64"/>
</svg>