<svg width="16" height="16" viewBox="0 0 16 16" fill="none" xmlns="http://www.w3.org/2000/svg">
  <path fill-rule="evenodd" clip-rule="evenodd" d="M1.6 12.56a1.559 1.559 0 0 1-.8-1.38V4.82a1.559 1.559 0 0 1 .8-1.38L7.2.22a1.573 1.573 0 0 1 1.6 0l5.6 3.22a1.559 1.559 0 0 1 .8 1.38v6.36a1.559 1.559 0 0 1-.8 1.38l-5.6 3.22a1.573 1.573 0 0 1-1.6 0l-5.6-3.22Zm.8-1.4V4.82L8 1.6l5.6 3.2v6.36L8 14.4l-5.6-3.24Zm4.436-1.996C7.612 9.939 8 10.884 8 12c0-1.115.388-2.06 1.164-2.836C9.939 8.388 10.884 8 12 8c-1.115 0-2.06-.388-2.836-1.164C8.388 6.061 8 5.116 8 4c0 1.115-.388 2.06-1.164 2.836C6.06 7.612 5.115 8 4 8c1.115 0 2.06.388 2.836 1.164Z" fill="#fff"/>
</svg>